<?xml version="1.0" encoding="UTF-8"?>
<svg width="58px" height="11px" viewBox="0 0 58 11" version="1.1" xmlns="http://www.w3.org/2000/svg" xmlns:xlink="http://www.w3.org/1999/xlink">
    <!-- Generator: Sketch 43.2 (39069) - http://www.bohemiancoding.com/sketch -->
    <title>battery</title>
    <desc>Created with Sketch.</desc>
    <defs></defs>
    <g id="Symbols" stroke="none" stroke-width="1" fill="none" fill-rule="evenodd">
        <g id="Status-Bar/Black/100%" transform="translate(-312.000000, -5.000000)" fill="#030303">
            <g id="battery" transform="translate(309.000000, 3.000000)">
                <path d="M37.4937128,2.5 L57.0062872,2.5 C57.8266197,2.5 58.5,3.17394722 58.5,4.00530324 L58.5,10.4946968 C58.5,11.3319784 57.831242,12 57.0062872,12 L37.4937128,12 C36.6733803,12 36,11.3260528 36,10.4946968 L36,4.00530324 C36,3.16802155 36.668758,2.5 37.4937128,2.5 Z M59,5.5 L59.75,5.5 C60.1671014,5.5 60.5,5.83232111 60.5,6.24225998 L60.5,8.25774002 C60.5,8.66440529 60.1642136,9 59.75,9 L59,9 L59,5.5 Z M37.5081524,3 C36.9513652,3 36.5,3.45699692 36.5,4.00844055 L36.5,10.4915594 C36.5,11.0485058 36.9490581,11.5 37.5081524,11.5 L56.9918476,11.5 C57.5486348,11.5 58,11.0430031 58,10.4915594 L58,4.00844055 C58,3.45149422 57.5509419,3 56.9918476,3 L37.5081524,3 Z M37.5067444,3.5 L56.9932556,3.5 C57.2697754,3.5 57.5,3.72031886 57.5,3.99209595 L57.5,10.5079041 C57.5,10.783628 57.2731228,11 56.9932556,11 L37.5067444,11 C37.2302246,11 37,10.7796811 37,10.5079041 L37,3.99209595 C37,3.71637201 37.2268772,3.5 37.5067444,3.5 Z" id="Battery"></path>
                <text id="100%" font-family="SFUIText-Regular, SF UI Text" font-size="12" font-weight="normal">
                    <tspan x="2.85351562" y="11.5">100%</tspan>
                </text>
            </g>
        </g>
    </g>
</svg>