<?xml version="1.0" encoding="UTF-8"?>
<svg width="47px" height="50px" viewBox="0 0 47 50" version="1.1" xmlns="http://www.w3.org/2000/svg" xmlns:xlink="http://www.w3.org/1999/xlink">
    <!-- Generator: Sketch 43.2 (39069) - http://www.bohemiancoding.com/sketch -->
    <title>Fill 171</title>
    <desc>Created with Sketch.</desc>
    <defs></defs>
    <g id="Page-1" stroke="none" stroke-width="1" fill="none" fill-rule="evenodd">
        <path d="M1.13298128,45.0432069 C1.88670187,45.7969275 2.74843975,46.1737878 3.82621219,46.1737878 L12.5012002,46.1737878 C12.9308689,46.1737878 14.3326932,46.5506481 16.6490639,47.3595775 C19.1286606,48.2213154 21.2818051,48.8670187 23.168507,49.3518963 C25,49.7839654 26.8867019,50 28.8262122,50 L32.7052328,50 C35.506481,50 37.8228517,49.1910706 39.5463274,47.5756121 C41.2722036,45.9577532 42.0787326,43.8022084 42.0787326,41.0009602 C43.2645223,39.493519 43.8574172,37.6620259 43.8574172,35.6673068 C43.8574172,35.2352376 43.8046087,34.8055689 43.7493999,34.3734998 C44.5583293,33.0268843 44.9351896,31.5722516 44.9351896,30.0096015 C44.9351896,29.3086894 44.8271723,28.6101776 44.6663466,27.9620739 C45.6889102,26.4546327 46.1737878,24.8367739 46.1737878,23.0052808 C46.1737878,20.9577532 45.4200672,19.181469 43.8574172,17.6716275 C42.349976,16.1641863 40.5712914,15.4080653 38.4709554,15.4080653 L33.137302,15.4080653 C34.1046567,13.4157465 34.5895343,11.4762362 34.5895343,9.58953433 C34.5895343,7.27316371 34.2678829,5.38886222 33.5669707,4.03984638 C32.8660586,2.64042247 31.843495,1.61545847 30.4968795,0.969755161 C29.150264,0.324051848 27.6404225,0 25.9697552,0 C24.9471916,0 24.0302448,0.376860298 23.2765242,1.13058089 C22.4147864,1.93951032 21.8218915,3.01728277 21.4978397,4.36389822 C21.1737878,5.71051368 20.8521363,6.95151224 20.5832933,8.19011042 C20.3120499,9.37590014 19.8823812,10.237638 19.3975036,10.7225156 C18.4277484,11.800288 17.349976,13.0916947 16.2169947,14.6015362 C14.1718675,17.1867499 12.7700432,18.7493999 12.0691311,19.2342775 L3.82621219,19.2342775 C2.80364858,19.2342775 1.88670187,19.6111378 1.13298128,20.3648584 C0.376860298,21.1209794 0,22.0355257 0,23.0604897 L0,42.3475756 C0,43.3725396 0.376860298,44.2870859 1.13298128,45.0432069 L1.13298128,45.0432069 Z M5.76572252,38.468555 C6.30340855,38.468555 6.73547768,38.6845895 7.11233797,39.0614498 C7.48919827,39.4383101 7.70523284,39.9231877 7.70523284,40.4080653 C7.70523284,40.9481517 7.48919827,41.3778205 7.11233797,41.7546807 C6.73547768,42.1339414 6.30340855,42.3475756 5.76572252,42.3475756 C5.22803649,42.3475756 4.79596735,42.1339414 4.41910706,41.7546807 C4.04224676,41.3778205 3.82621219,40.9481517 3.82621219,40.4080653 C3.82621219,39.9231877 4.04224676,39.4383101 4.41910706,39.0614498 C4.79596735,38.6845895 5.22803649,38.468555 5.76572252,38.468555 L5.76572252,38.468555 Z M11.531445,23.0604897 L12.5012002,23.0604897 C12.8228517,23.0604897 13.2021123,22.9524724 13.5789726,22.7916467 C13.9558329,22.6284205 14.3855017,22.3595775 14.8175708,21.9827172 C15.1944311,21.6058569 15.6265002,21.2818051 16.0033605,20.9049448 C16.325012,20.5808929 16.7570811,20.1512242 17.1891503,19.6111378 C17.618819,19.0734518 17.9956793,18.6413826 18.2645223,18.3197312 C18.4805569,17.9956793 18.8046087,17.618819 19.181469,17.1339414 C19.6135382,16.593855 19.8271723,16.325012 19.8823812,16.2169947 C21.0129621,14.8703793 21.8218915,13.9534325 22.2515602,13.468555 C23.0604897,12.6068171 23.6533845,11.5290446 23.9774364,10.1824292 C24.2990879,8.89102256 24.6231397,7.59721555 24.8919827,6.41142583 C25.2160346,5.2256361 25.5928949,4.36389822 26.0777724,3.82621219 C27.9644743,3.82621219 29.2030725,4.31108977 29.8487758,5.2256361 C30.4416707,6.19539126 30.7657225,7.650024 30.7657225,9.58953433 C30.7657225,10.7753241 30.2808449,12.3931829 29.3110898,14.4383101 C28.3413346,16.4858377 27.856457,18.0484878 27.856457,19.2342775 L38.4709554,19.2342775 C39.493519,19.2342775 40.4104657,19.6111378 41.1641863,20.3648584 C41.9731157,21.1737878 42.349976,22.0355257 42.349976,23.0604897 C42.349976,23.7614018 42.1339414,24.5679309 41.7018723,25.4848776 C41.2169947,26.3994239 40.6793087,26.8867019 40.0336054,26.9395103 C40.3552568,27.2635622 40.5712914,27.7484398 40.787326,28.3389342 C41.0009602,28.9870379 41.1089774,29.524724 41.1089774,30.0096015 C41.1089774,31.4114258 40.5712914,32.5972156 39.493519,33.6197792 C39.8703793,34.2654825 40.0336054,34.9663946 40.0336054,35.6673068 C40.0336054,36.4210274 39.8703793,37.1771483 39.493519,37.8756601 C39.1694671,38.6317811 38.6845895,39.1694671 38.0940951,39.493519 C38.199712,40.0864138 38.2549208,40.6240999 38.2549208,41.1617859 C38.2549208,44.5031205 36.3154105,46.1737878 32.4891983,46.1737878 L28.8262122,46.1737878 C26.2385982,46.1737878 22.7916467,45.4200672 18.5885742,43.9654345 C18.4805569,43.9654345 18.1589054,43.8574172 17.6740278,43.6941911 C17.1891503,43.5333653 16.8650984,43.3725396 16.6490639,43.3173308 C16.3802208,43.2093135 16.056169,43.1036966 15.5712914,42.9404705 C15.0864138,42.8324532 14.7095535,42.7244359 14.4407105,42.618819 C14.1166587,42.5636102 13.7950072,42.5108017 13.4157465,42.4555929 C13.0940951,42.4027844 12.7700432,42.3475756 12.5012002,42.3475756 L11.531445,42.3475756 L11.531445,23.0604897 L11.531445,23.0604897 Z" id="Fill-171" fill="#44464A"></path>
    </g>
</svg>