<?xml version="1.0" encoding="UTF-8"?>
<svg width="51px" height="48px" viewBox="0 0 51 48" version="1.1" xmlns="http://www.w3.org/2000/svg" xmlns:xlink="http://www.w3.org/1999/xlink">
    <!-- Generator: Sketch 43.2 (39069) - http://www.bohemiancoding.com/sketch -->
    <title>Fill 184 Copy</title>
    <desc>Created with Sketch.</desc>
    <defs></defs>
    <g id="Page-1" stroke="none" stroke-width="1" fill="none" fill-rule="evenodd">
        <path d="M1.39781691,43.3146831 C1.78945531,43.7063252 2.23597297,43.9308334 2.79723818,43.9308334 L11.755031,43.9308334 C12.3162963,43.9308334 12.7628139,43.7063252 13.1544523,43.3146831 C13.5460907,42.9230411 13.7705968,42.4740248 13.7705968,41.9152489 L13.7705968,21.9814177 C13.7705968,21.4226418 13.5460907,20.9736254 13.1544523,20.5819834 C12.7628139,20.1903414 12.3162963,19.9658332 11.755031,19.9658332 L2.79723818,19.9658332 C2.23597297,19.9658332 1.78945531,20.1903414 1.39781691,20.5819834 C1.00617852,20.9736254 0.78167243,21.4226418 0.78167243,21.9814177 L0.78167243,41.9152489 C0.78167243,42.4740248 1.00617852,42.9230411 1.39781691,43.3146831 L1.39781691,43.3146831 Z M5.31669538,36.5395254 C5.70833377,36.1478834 6.21222521,35.9807495 6.77099592,35.9807495 C7.33226113,35.9807495 7.7787788,36.1478834 8.1729117,36.5395254 C8.5645501,36.9311674 8.78905619,37.4350636 8.78905619,37.9389597 C8.78905619,38.5002301 8.5645501,39.0041262 8.1729117,39.3957683 C7.7787788,39.7874103 7.33226113,39.9545442 6.77099592,39.9545442 C6.21222521,39.9545442 5.70833377,39.7874103 5.31669538,39.3957683 C4.92505698,39.0041262 4.75543016,38.5002301 4.75543016,37.9389597 C4.75543016,37.4350636 4.92505698,36.9311674 5.31669538,36.5395254 L5.31669538,36.5395254 Z M16.3474278,43.3146831 C16.7939454,43.7063252 17.2429576,43.9308334 17.8017283,43.9308334 C18.5301258,43.9308334 20.1540532,44.4347295 22.7283897,45.3302676 C24.2974377,45.8341638 25.584606,46.2831801 26.4801358,46.562568 C27.3781602,46.841956 28.6653284,47.1213439 30.2892557,47.4581062 C31.9131831,47.7948685 33.4248574,47.9071225 34.7669049,47.9071225 L38.7980364,47.9071225 C41.5993735,47.9071225 43.6149392,47.0664642 44.9569867,45.4974015 C46.1892757,44.0430874 46.6931671,42.1946368 46.4686611,39.8422901 C47.3093116,39.059006 47.8705768,38.1085881 48.2048415,36.9311674 C48.5416006,35.6439873 48.5416006,34.4116868 48.2048415,33.2367607 C49.1577451,32.0044603 49.6042627,30.5476517 49.5493835,28.9810836 C49.5493835,28.3100536 49.3822512,27.524275 49.045492,26.6287369 C50.2204072,25.2866769 50.7816724,23.7176142 50.7816724,21.9265379 C50.7816724,20.3574752 50.1655279,18.9031612 48.9906128,17.7257405 C47.8132031,16.5508144 46.4137818,15.9346642 44.7898544,15.9346642 L36.1114469,15.9346642 C36.2237,15.6552763 36.2785792,15.4307681 36.3908323,15.2062599 C36.4482061,14.9842463 36.5604591,14.7597381 36.7275914,14.53523 C36.8398445,14.255842 36.9520975,14.0862136 37.0069768,13.9739595 C37.3986152,13.2480498 37.6780005,12.6867793 37.9025066,12.2402575 C38.0721334,11.7363614 38.294145,11.1202112 38.4637718,10.3369271 C38.6857834,9.55114853 38.7980364,8.76786446 38.7980364,7.98458039 C38.7980364,7.48068427 38.7431572,7.08904224 38.7431572,6.75227998 C38.7431572,6.41551772 38.6857834,5.96899591 38.6309041,5.35284571 C38.5186511,4.7366955 38.406398,4.17542507 38.2392657,3.78378303 C38.0721334,3.392141 37.8476273,2.88824488 37.4559889,2.38434876 C37.1192298,1.88045264 36.7275914,1.43393083 36.2237,1.09716857 C35.7198085,0.81778062 35.103664,0.538392672 34.3752665,0.313884499 C33.5919897,0.0893763266 32.7513392,-0.0228777597 31.8009301,-0.0228777597 C31.2396648,-0.0228777597 30.7931472,0.201630413 30.344135,0.593272447 C29.9524966,0.984914482 29.6157375,1.4888106 29.2814729,2.10496081 C28.999593,2.77599079 28.8324607,3.27988691 28.7202077,3.72890326 C28.6079546,4.23279938 28.4408223,4.84894958 28.3285693,5.63223365 C28.1040632,6.52777181 27.9918101,7.14392202 27.8795571,7.53556405 C27.7697986,7.92720608 27.6001717,8.4311022 27.3207864,9.04725241 C27.041401,9.66340262 26.7620157,10.1672987 26.3703773,10.5589408 C25.696859,11.2324653 24.6341969,12.5196455 23.2322811,14.3107218 C22.1696189,15.6552763 21.1618361,16.8875767 20.0418001,18.0625028 C18.979138,19.2948032 18.1933667,19.9109534 17.6894753,19.9109534 C17.1855838,19.9658332 16.7390662,20.1903414 16.3474278,20.5819834 C15.9557894,20.9736254 15.7861626,21.4226418 15.7861626,21.9265379 L15.7861626,41.9152489 C15.7861626,42.4740248 15.9557894,42.9230411 16.3474278,43.3146831 L16.3474278,43.3146831 Z" id="Fill-184-Copy" fill="#4483FB"></path>
    </g>
</svg>