<?xml version="1.0" encoding="UTF-8"?>
<svg width="50px" height="43px" viewBox="0 0 50 43" version="1.1" xmlns="http://www.w3.org/2000/svg" xmlns:xlink="http://www.w3.org/1999/xlink">
    <!-- Generator: Sketch 43.2 (39069) - http://www.bohemiancoding.com/sketch -->
    <title>Fill 191</title>
    <desc>Created with Sketch.</desc>
    <defs></defs>
    <g id="Page-1" stroke="none" stroke-width="1" fill="none" fill-rule="evenodd">
        <path d="M0.650478949,16.9013143 C1.10046781,18.2512809 1.59946536,19.3517487 2.14969926,20.3007351 C2.69993317,21.2007129 3.35041212,22.1006906 4.04989975,23.0006683 C4.74938739,23.900646 5.25061261,24.4998886 5.60035643,24.8518601 C5.89886389,25.1503676 6.19959902,25.402094 6.34885275,25.5513477 L23.7491646,42.352417 C24.1011361,42.7021608 24.4998886,42.8514146 25.0011138,42.8514146 C25.5001114,42.8514146 25.9010916,42.7021608 26.2508354,42.352417 L43.5999109,25.6003564 C47.8503007,21.3499666 50,17.1508131 50,13.049677 C50,8.95076855 48.8015148,5.74961016 46.4513255,3.45065716 C44.1011361,1.1494765 40.850969,0 36.7008242,0 C35.5001114,0 34.3506349,0.200490087 33.149922,0.599242593 C31.9514368,1.00022277 30.7997327,1.55045667 29.7995099,2.20093562 C28.7502785,2.90042326 27.8503007,3.55090221 27.0995767,4.1501448 C26.4000891,4.7003787 25.6493651,5.35085765 25.0011138,6.05034529 C24.3506349,5.35085765 23.5999109,4.7003787 22.9004233,4.1501448 C22.1496993,3.55090221 21.2497215,2.90042326 20.2004901,2.20093562 C19.2002673,1.55045667 18.0507908,1.00022277 16.850078,0.599242593 C15.6493651,0.200490087 14.4998886,0 13.3504121,0 C9.14903096,0 5.89886389,1.1494765 3.54867454,3.45065716 C1.19848519,5.74961016 0,8.95076855 0,13.049677 C0,14.3016262 0.200490087,15.6003564 0.650478949,16.9013143 L0.650478949,16.9013143 Z M4.1501448,9.05101359 C4.5488973,7.90153709 5.05012252,7.00155937 5.70060147,6.29984406 C6.29984406,5.60035643 7.05056806,5.05012252 7.95054578,4.65137002 C8.8505235,4.20138115 9.75050123,3.90064602 10.5992426,3.75139229 C11.4502116,3.59991089 12.3501894,3.55090221 13.3504121,3.55090221 C14.2993985,3.55090221 15.3508577,3.80040098 16.4490978,4.25038984 C17.5495656,4.74938739 18.6010247,5.35085765 19.5500111,6.05034529 C20.4989975,6.74983292 21.3009579,7.45154823 21.9492092,8.05079082 C22.6509245,8.70126977 23.2011584,9.25150368 23.6511472,9.75050123 C23.9496547,10.2004901 24.3996436,10.4009802 25.0011138,10.4009802 C25.6003564,10.4009802 26.0503453,10.2004901 26.3510804,9.75050123 C26.8010693,9.25150368 27.3490755,8.70126977 28.0507908,8.05079082 C28.7012698,7.45154823 29.5010025,6.74983292 30.4499889,6.05034529 C31.4012029,5.35085765 32.4504344,4.74938739 33.5509022,4.25038984 C34.65137,3.80040098 35.7006015,3.55090221 36.7008242,3.55090221 C37.6498106,3.55090221 38.5497884,3.59991089 39.4007574,3.75139229 C40.2494988,3.90064602 41.1517042,4.20138115 42.0516819,4.65137002 C42.9516596,5.05012252 43.7001559,5.60035643 44.3016262,6.29984406 C44.9498775,7.00155937 45.4511027,7.90153709 45.8498552,9.05101359 C46.2508354,10.2004901 46.4513255,11.5504567 46.4513255,13.049677 C46.4513255,16.1505903 44.7003787,19.4497661 41.2007129,22.9516596 L25.0011138,38.552016 L8.75027846,22.9516596 C5.2996213,19.4497661 3.54867454,16.1505903 3.54867454,13.049677 C3.54867454,11.5504567 3.74916462,10.2004901 4.1501448,9.05101359 L4.1501448,9.05101359 Z" id="Fill-191" fill="#D0011B"></path>
    </g>
</svg>