<?xml version="1.0" encoding="UTF-8"?>
<svg width="50px" height="43px" viewBox="0 0 50 43" version="1.1" xmlns="http://www.w3.org/2000/svg" xmlns:xlink="http://www.w3.org/1999/xlink">
    <!-- Generator: Sketch 43.2 (39069) - http://www.bohemiancoding.com/sketch -->
    <title>Fill 191 Copy</title>
    <desc>Created with Sketch.</desc>
    <defs></defs>
    <g id="Page-1" stroke="none" stroke-width="1" fill="none" fill-rule="evenodd">
        <path d="M0.650478949,16.9013143 C1.10046781,18.2512809 1.59946536,19.3517487 2.14969926,20.3007351 C2.69993317,21.2007129 3.35041212,22.1006906 4.04989975,23.0006683 C4.74938739,23.900646 5.25061261,24.4998886 5.60035643,24.8518601 C5.89886389,25.1503676 6.19959902,25.402094 6.34885275,25.5513477 L23.7491646,42.352417 C24.1011361,42.7021608 24.4998886,42.8514146 25.0011138,42.8514146 C25.5001114,42.8514146 25.9010916,42.7021608 26.2508354,42.352417 L43.5999109,25.6003564 C47.8503007,21.3499666 50,17.1508131 50,13.049677 C50,8.95076855 48.8015148,5.74961016 46.4513255,3.45065716 C44.1011361,1.1494765 40.850969,0 36.7008242,0 C35.5001114,0 34.3506349,0.200490087 33.149922,0.599242593 C31.9514368,1.00022277 30.7997327,1.55045667 29.7995099,2.20093562 C28.7502785,2.90042326 27.8503007,3.55090221 27.0995767,4.1501448 C26.4000891,4.7003787 25.6493651,5.35085765 25.0011138,6.05034529 C24.3506349,5.35085765 23.5999109,4.7003787 22.9004233,4.1501448 C22.1496993,3.55090221 21.2497215,2.90042326 20.2004901,2.20093562 C19.2002673,1.55045667 18.0507908,1.00022277 16.850078,0.599242593 C15.6493651,0.200490087 14.4998886,0 13.3504121,0 C9.14903096,0 5.89886389,1.1494765 3.54867454,3.45065716 C1.19848519,5.74961016 0,8.95076855 0,13.049677 C0,14.3016262 0.200490087,15.6003564 0.650478949,16.9013143 L0.650478949,16.9013143 Z" id="Fill-191-Copy" fill="#D0011B"></path>
    </g>
</svg>