<?xml version="1.0" encoding="UTF-8"?>
<svg width="52px" height="45px" viewBox="0 0 52 45" version="1.1" xmlns="http://www.w3.org/2000/svg" xmlns:xlink="http://www.w3.org/1999/xlink">
    <!-- Generator: Sketch 43.2 (39069) - http://www.bohemiancoding.com/sketch -->
    <title>Fill 165 Copy</title>
    <desc>Created with Sketch.</desc>
    <defs></defs>
    <g id="Page-1" stroke="none" stroke-width="1" fill="none" fill-rule="evenodd">
        <g id="ephemeral-stuffs-copy-3" transform="translate(-162.000000, -575.000000)" fill="#89B537">
            <path d="M164.01457,617.48543 C165.356193,618.827052 166.939222,619.5 168.857657,619.5 L206.547,619.5 C208.465434,619.5 210.048464,618.827052 211.390086,617.48543 C212.733845,616.141671 213.404657,614.560778 213.404657,612.642343 L213.404657,588.713178 C213.404657,586.79688 212.733845,585.21385 211.390086,583.870091 C210.048464,582.528469 208.416299,581.857657 206.547,581.857657 L200.552424,581.857657 L199.161666,578.213058 C198.82626,577.349976 198.204585,576.583029 197.339366,575.959217 C196.429285,575.335406 195.519203,575 194.559986,575 L180.844671,575 C179.885454,575 178.975372,575.335406 178.063154,575.959217 C177.200072,576.583029 176.578397,577.349976 176.240855,578.213058 L174.850096,581.857657 L168.857657,581.857657 C166.986222,581.857657 165.356193,582.528469 164.01457,583.870091 C162.670811,585.21385 162,586.79688 162,588.713178 L162,612.642343 C162,614.560778 162.670811,616.141671 164.01457,617.48543 L164.01457,617.48543 Z M187.702328,588.713178 C190.962386,588.713178 193.793039,589.864666 196.140879,592.214642 C198.490855,594.564618 199.689342,597.393135 199.689342,600.653193 C199.689342,603.962386 198.490855,606.790903 196.140879,609.140879 C193.793039,611.490855 190.962386,612.642343 187.702328,612.642343 C184.393135,612.642343 181.564618,611.490855 179.214642,609.140879 C176.864666,606.790903 175.713178,603.962386 175.713178,600.653193 C175.713178,597.393135 176.864666,594.564618 179.214642,592.214642 C181.564618,589.864666 184.393135,588.713178 187.702328,588.713178 L187.702328,588.713178 Z M187.702328,608.373932 C189.813034,608.373932 191.633197,607.606985 193.120091,606.120091 C194.606985,604.633197 195.373932,602.810898 195.373932,600.653193 C195.373932,598.544623 194.606985,596.722324 193.120091,595.23543 C191.633197,593.748536 189.813034,592.981589 187.702328,592.981589 C185.544623,592.981589 183.722324,593.748536 182.23543,595.23543 C180.748536,596.722324 179.981589,598.544623 179.981589,600.653193 C179.981589,602.810898 180.748536,604.633197 182.23543,606.120091 C183.722324,607.606985 185.544623,608.373932 187.702328,608.373932 L187.702328,608.373932 Z" id="Fill-165-Copy"></path>
        </g>
    </g>
</svg>