<?xml version="1.0" encoding="UTF-8"?>
<svg width="110px" height="11px" viewBox="0 0 110 11" version="1.1" xmlns="http://www.w3.org/2000/svg" xmlns:xlink="http://www.w3.org/1999/xlink">
    <!-- Generator: Sketch 43.2 (39069) - http://www.bohemiancoding.com/sketch -->
    <title>status 1</title>
    <desc>Created with Sketch.</desc>
    <defs></defs>
    <g id="Symbols" stroke="none" stroke-width="1" fill="none" fill-rule="evenodd">
        <g id="Status-Bar/Black/100%" transform="translate(-6.000000, -5.000000)" fill="#030303">
            <g id="status-1" transform="translate(6.000000, 3.000000)">
                <path d="M105.144421,9.43850432 L103.022539,11.5 L100.860165,9.40531769 C101.377859,8.83143413 102.139007,8.46891192 102.987563,8.46891192 C103.852362,8.46891192 104.626374,8.84544555 105.144421,9.43850432 Z M107.323496,7.32144245 L107.323496,7.32144245 L106.234622,8.37932931 C105.435631,7.51823504 104.276884,6.97668394 102.987563,6.97668394 C101.713648,6.97668394 100.567205,7.5053708 99.7692987,8.34859996 L98.6792698,7.29269359 C99.7566264,6.17975893 101.288272,5.48445596 102.987563,5.48445596 C104.701439,5.48445596 106.244779,6.19174563 107.323496,7.32144245 Z M109.5,5.20687933 L108.41187,6.26404272 C107.053881,4.86552609 105.126003,3.99222798 102.987563,3.99222798 C100.862892,3.99222798 98.9460798,4.85431655 97.5895579,6.23709441 L96.5,5.18164431 C98.1355496,3.52895605 100.43751,2.5 102.987563,2.5 C105.55057,2.5 107.862958,3.53943672 109.5,5.20687933 Z" id="Wi-Fi"></path>
                <text id="Carrier" font-family="SFUIText-Regular, SF UI Text" font-size="12" font-weight="normal">
                    <tspan x="38" y="11.5">Boreizon</tspan>
                </text>
                <path d="M3.25,10 C1.73121694,10 0.5,8.76878306 0.5,7.25 C0.5,5.73121694 1.73121694,4.5 3.25,4.5 C4.76878306,4.5 6,5.73121694 6,7.25 C6,8.76878306 4.76878306,10 3.25,10 Z M10.25,10 C8.73121694,10 7.5,8.76878306 7.5,7.25 C7.5,5.73121694 8.73121694,4.5 10.25,4.5 C11.7687831,4.5 13,5.73121694 13,7.25 C13,8.76878306 11.7687831,10 10.25,10 Z M17.25,10 C15.7312169,10 14.5,8.76878306 14.5,7.25 C14.5,5.73121694 15.7312169,4.5 17.25,4.5 C18.7687831,4.5 20,5.73121694 20,7.25 C20,8.76878306 18.7687831,10 17.25,10 Z M24.25,10 C22.7312169,10 21.5,8.76878306 21.5,7.25 C21.5,5.73121694 22.7312169,4.5 24.25,4.5 C25.7687831,4.5 27,5.73121694 27,7.25 C27,8.76878306 25.7687831,10 24.25,10 Z M31.25,10 C29.7312169,10 28.5,8.76878306 28.5,7.25 C28.5,5.73121694 29.7312169,4.5 31.25,4.5 C32.7687831,4.5 34,5.73121694 34,7.25 C34,8.76878306 32.7687831,10 31.25,10 Z" id="Mobile-Signal"></path>
            </g>
        </g>
    </g>
</svg>